<svg width="24" height="24" viewBox="0 0 38 38" fill="none" xmlns="http://www.w3.org/2000/svg">
<mask id="path-1-inside-1_22_94" fill="white">
<path d="M11.9412 31H10.5294L11.3765 29.8C11.9412 28.975 12.2941 27.925 12.5059 26.65C8.97647 24.925 7 21.7 7 17.5C7 11.05 11.5882 7 19 7C26.4118 7 31 11.05 31 17.5C31 24.1 26.4824 28 19 28H18.5059C17.3765 29.425 15.4 31 11.9412 31ZM19 8.5C12.3647 8.5 8.41176 11.875 8.41176 17.5C8.41176 22.3 11.1647 24.55 13.4941 25.525L13.9882 25.75L13.9176 26.35C13.7765 27.55 13.5647 28.6 13.1412 29.5C15.4706 29.2 16.8118 27.925 17.5882 26.875L17.8 26.575H19C28.5294 26.575 29.5882 20.275 29.5882 17.575C29.5882 11.875 25.6353 8.5 19 8.5Z"/>
</mask>
<path d="M10.5294 31L7.26154 28.6933L2.80972 35H10.5294V31ZM11.3765 29.8L14.6443 32.1067L14.661 32.0832L14.6773 32.0594L11.3765 29.8ZM12.5059 26.65L16.4518 27.3054L16.9402 24.3651L14.2623 23.0563L12.5059 26.65ZM18.5059 28V24H16.5722L15.3711 25.5154L18.5059 28ZM13.4941 25.525L15.1518 21.8846L15.0955 21.859L15.0385 21.8352L13.4941 25.525ZM13.9882 25.75L17.9608 26.2174L18.3018 23.319L15.6459 22.1096L13.9882 25.75ZM13.9176 26.35L9.94504 25.8826L13.9176 26.35ZM13.1412 29.5L9.5219 27.7968L6.41485 34.3993L13.6521 33.4672L13.1412 29.5ZM17.5882 26.875L20.8044 29.2533L20.8306 29.2178L20.8561 29.1817L17.5882 26.875ZM17.8 26.575V22.575H15.7274L14.5321 24.2683L17.8 26.575ZM11.9412 27H10.5294V35H11.9412V27ZM13.7973 33.3067L14.6443 32.1067L8.1086 27.4933L7.26154 28.6933L13.7973 33.3067ZM14.6773 32.0594C15.6914 30.5777 16.1869 28.9008 16.4518 27.3054L8.55994 25.9946C8.40138 26.9492 8.19093 27.3723 8.07567 27.5406L14.6773 32.0594ZM14.2623 23.0563C12.1855 22.0412 11 20.2626 11 17.5H3C3 23.1374 5.76741 27.8088 10.7494 30.2437L14.2623 23.0563ZM11 17.5C11 15.2819 11.7538 13.8071 12.8582 12.8384C14.0224 11.8172 15.9955 11 19 11V3C14.5927 3 10.5658 4.20776 7.58295 6.82412C4.54027 9.49293 3 13.2681 3 17.5H11ZM19 11C22.0045 11 23.9776 11.8172 25.1418 12.8384C26.2462 13.8071 27 15.2819 27 17.5H35C35 13.2681 33.4597 9.49293 30.4171 6.82412C27.4342 4.20776 23.4073 3 19 3V11ZM27 17.5C27 19.833 26.2377 21.2855 25.1773 22.2099C24.0448 23.1972 22.0845 24 19 24V32C23.3978 32 27.4375 30.8528 30.4344 28.2401C33.5035 25.5645 35 21.767 35 17.5H27ZM19 24H18.5059V32H19V24ZM15.3711 25.5154C15.0672 25.8989 14.6931 26.2487 14.2084 26.5083C13.7418 26.7583 13.0349 27 11.9412 27V35C16.8565 35 19.9116 32.6662 21.6407 30.4846L15.3711 25.5154ZM19 4.5C15.0475 4.5 11.3748 5.50449 8.62523 7.84442C5.79215 10.2555 4.41176 13.6857 4.41176 17.5H12.4118C12.4118 15.6893 13.0078 14.6195 13.8101 13.9368C14.6958 13.183 16.3172 12.5 19 12.5V4.5ZM4.41176 17.5C4.41176 20.7198 5.35453 23.3474 6.89869 25.3724C8.40485 27.3475 10.3125 28.5296 11.9497 29.2148L15.0385 21.8352C14.3463 21.5454 13.7128 21.115 13.2601 20.5214C12.8455 19.9776 12.4118 19.0802 12.4118 17.5H4.41176ZM11.8365 29.1654L12.3306 29.3904L15.6459 22.1096L15.1518 21.8846L11.8365 29.1654ZM10.0156 25.2826L9.94504 25.8826L17.8902 26.8174L17.9608 26.2174L10.0156 25.2826ZM9.94504 25.8826C9.82 26.9455 9.66869 27.4849 9.5219 27.7968L16.7605 31.2032C17.4607 29.7151 17.7329 28.1545 17.8902 26.8174L9.94504 25.8826ZM13.6521 33.4672C17.3916 32.9856 19.6087 30.8702 20.8044 29.2533L14.3721 24.4967C14.1763 24.7615 13.9613 24.9835 13.7119 25.1515C13.4817 25.3066 13.1505 25.4658 12.6302 25.5328L13.6521 33.4672ZM20.8561 29.1817L21.0679 28.8817L14.5321 24.2683L14.3204 24.5683L20.8561 29.1817ZM17.8 30.575H19V22.575H17.8V30.575ZM19 30.575C24.7282 30.575 28.6804 28.6237 31.0504 25.5103C33.2633 22.6033 33.5882 19.332 33.5882 17.575H25.5882C25.5882 18.518 25.3837 19.7467 24.6849 20.6647C24.1431 21.3763 22.8012 22.575 19 22.575V30.575ZM33.5882 17.575C33.5882 13.7393 32.2191 10.2891 29.3838 7.86154C26.6309 5.5045 22.9521 4.5 19 4.5V12.5C21.6831 12.5 23.2985 13.183 24.1809 13.9385C24.9809 14.6234 25.5882 15.7107 25.5882 17.575H33.5882Z" fill="black" mask="url(#path-1-inside-1_22_94)"/>
</svg>
