<svg width="38" height="38" viewBox="0 0 38 38" fill="none" xmlns="http://www.w3.org/2000/svg">
<path d="M31.6667 22.1667H24.8583L26.0142 15.8333H31.6667C32.0866 15.8333 32.4893 15.6665 32.7863 15.3696C33.0832 15.0726 33.25 14.6699 33.25 14.25C33.25 13.8301 33.0832 13.4273 32.7863 13.1304C32.4893 12.8335 32.0866 12.6667 31.6667 12.6667H26.5842L27.6767 6.63416C27.7198 6.42248 27.7192 6.2042 27.6749 5.99276C27.6305 5.78132 27.5434 5.58119 27.4188 5.40469C27.2942 5.22819 27.1348 5.07906 26.9504 4.96647C26.7661 4.85387 26.5606 4.7802 26.3467 4.75C26.134 4.69932 25.9131 4.69326 25.6979 4.73218C25.4827 4.7711 25.278 4.85416 25.0965 4.97614C24.915 5.09811 24.7608 5.25635 24.6435 5.44088C24.5262 5.62541 24.4484 5.83224 24.415 6.04833L23.2275 12.6667H17.0842L18.1767 6.63416C18.2198 6.42248 18.2192 6.2042 18.1749 5.99276C18.1305 5.78132 18.0434 5.58119 17.9188 5.40469C17.7942 5.22819 17.6348 5.07906 17.4504 4.96647C17.2661 4.85387 17.0606 4.7802 16.8467 4.75C16.634 4.69932 16.4131 4.69326 16.1979 4.73218C15.9827 4.7711 15.778 4.85416 15.5965 4.97614C15.415 5.09811 15.2608 5.25635 15.1435 5.44088C15.0262 5.62541 14.9484 5.83224 14.915 6.04833L13.7275 12.6667H6.33333C5.91341 12.6667 5.51068 12.8335 5.21375 13.1304C4.91681 13.4273 4.75 13.8301 4.75 14.25C4.75 14.6699 4.91681 15.0726 5.21375 15.3696C5.51068 15.6665 5.91341 15.8333 6.33333 15.8333H13.1417L11.9858 22.1667H6.33333C5.91341 22.1667 5.51068 22.3335 5.21375 22.6304C4.91681 22.9273 4.75 23.3301 4.75 23.75C4.75 24.1699 4.91681 24.5726 5.21375 24.8696C5.51068 25.1665 5.91341 25.3333 6.33333 25.3333H11.4158L10.3233 31.3658C10.2802 31.5775 10.2808 31.7958 10.3251 32.0072C10.3695 32.2187 10.4566 32.4188 10.5812 32.5953C10.7058 32.7718 10.8652 32.9209 11.0496 33.0335C11.2339 33.1461 11.4394 33.2198 11.6533 33.25C11.866 33.3007 12.0869 33.3067 12.3021 33.2678C12.5173 33.2289 12.722 33.1458 12.9035 33.0239C13.085 32.9019 13.2392 32.7436 13.3565 32.5591C13.4738 32.3746 13.5516 32.1678 13.585 31.9517L14.7725 25.3333H20.9158L19.8233 31.3658C19.7802 31.5775 19.7808 31.7958 19.8251 32.0072C19.8695 32.2187 19.9566 32.4188 20.0812 32.5953C20.2058 32.7718 20.3652 32.9209 20.5496 33.0335C20.7339 33.1461 20.9394 33.2198 21.1533 33.25C21.366 33.3007 21.5869 33.3067 21.8021 33.2678C22.0173 33.2289 22.222 33.1458 22.4035 33.0239C22.585 32.9019 22.7392 32.7436 22.8565 32.5591C22.9738 32.3746 23.0516 32.1678 23.085 31.9517L24.2725 25.3333H31.6667C32.0866 25.3333 32.4893 25.1665 32.7863 24.8696C33.0832 24.5726 33.25 24.1699 33.25 23.75C33.25 23.3301 33.0832 22.9273 32.7863 22.6304C32.4893 22.3335 32.0866 22.1667 31.6667 22.1667ZM15.3583 22.1667L16.5142 15.8333H22.6417L21.4858 22.1667H15.3583Z" fill="#3A3838"/>
</svg>
