<svg width="24" height="24" viewBox="0 0 24 24" fill="none" xmlns="http://www.w3.org/2000/svg">
<path d="M22 2C22 2 14.36 1.63 8.34 9.88C3.72 16.21 2 22 2 22L3.94 21C5.38 18.5 6.13 17.47 7.54 16C10.07 16.74 12.71 16.65 15 14C13 13.44 11.4 13.57 9.04 13.81C11.69 12 13.5 11.6 16 12L17 10C15.2 9.66 14 9.63 12.22 10.04C14.19 8.65 15.56 7.87 18 8L19.21 6.07C17.65 5.96 16.71 6.13 14.92 6.57C16.53 5.11 18 4.45 20.14 4.32C20.14 4.32 21.19 2.43 22 2V2Z" fill="#fff"/>
<g clip-path="url(#clip0_81_2)">
<path d="M5.99999 8.66668V6.00001M5.99999 6.00001V3.33334M5.99999 6.00001H8.66666M5.99999 6.00001H3.33333" stroke="#fff" stroke-linecap="round"/>
</g>
<defs>
<clipPath id="clip0_81_2">
<rect width="8" height="8" fill="white" transform="translate(2 2)"/>
</clipPath>
</defs>
</svg>
