<svg width="38" height="38" viewBox="0 0 38 38" fill="none" xmlns="http://www.w3.org/2000/svg">
<path d="M15.0417 21.0833H15.5417V20.5833V19.5H16.125V20.5833C16.125 20.9063 16.0214 21.1527 15.817 21.3571C15.6112 21.5629 15.3641 21.6667 15.0417 21.6667H13.4583C13.1359 21.6667 12.8897 21.5629 12.6852 21.3577L12.6839 21.3565C12.4787 21.152 12.375 20.9057 12.375 20.5833V17.4167C12.375 17.0942 12.4788 16.8471 12.6846 16.6413C12.8889 16.4369 13.1354 16.3333 13.4583 16.3333H15.0417C15.3643 16.3333 15.6115 16.4368 15.817 16.6413C15.9007 16.7254 15.9674 16.8164 16.0171 16.9167H13.4583H12.9583V17.4167V20.5833V21.0833H13.4583H15.0417ZM22.9583 19.2917H22.4583V19.7917V21.6667H21.875V16.3333H25.625V16.9167H22.9583H22.4583V17.4167V18.2083V18.7083H22.9583H24.8333V19.2917H22.9583ZM7.41667 30.0833V30.5833H7.91667H30.0833H30.5833V30.0833V7.91667V7.41667H30.0833H7.91667H7.41667V7.91667V30.0833ZM19.2917 16.3333V21.6667H18.7083V16.3333H19.2917ZM7.91667 32.75C7.17957 32.75 6.56071 32.4937 6.03315 31.9672C5.50646 31.4396 5.25 30.8206 5.25 30.0833V7.91667C5.25 7.17949 5.5064 6.56058 6.03297 6.03297C6.56058 5.5064 7.17949 5.25 7.91667 5.25H30.0833C30.8206 5.25 31.4396 5.50646 31.9672 6.03315C32.4937 6.56072 32.75 7.17957 32.75 7.91667V30.0833C32.75 30.8205 32.4936 31.4394 31.967 31.967C31.4394 32.4936 30.8205 32.75 30.0833 32.75H7.91667Z" fill="rgba(29, 161, 242, 1)" stroke="rgba(29, 161, 242, 1)"/>
</svg>
