<svg width="14" height="14" viewBox="0 0 38 38" fill="none" xmlns="http://www.w3.org/2000/svg">
<g clip-path="url(#clip0_101_2)">
<path d="M4.28242 14.3242L4.98008 15.5414C5.59609 16.6176 6.60547 17.4117 7.80039 17.7531L12.0977 18.9777C13.3742 19.3414 14.25 20.5066 14.25 21.8352V24.7965C14.25 25.6129 14.7102 26.3551 15.4375 26.7188C16.1648 27.0824 16.625 27.8246 16.625 28.641V31.5355C16.625 32.6934 17.7309 33.532 18.8441 33.2129C20.0391 32.8715 20.9668 31.9141 21.2711 30.7043L21.4789 29.873C21.7906 28.6188 22.607 27.5426 23.7277 26.9043L24.3289 26.5629C25.4422 25.932 26.125 24.7445 26.125 23.468V22.852C26.125 21.9094 25.7465 21.0039 25.0785 20.3359L24.7891 20.0465C24.1211 19.3785 23.2156 19 22.273 19H19.0742C18.2504 19 17.434 18.7848 16.7141 18.3766L14.1535 16.9145C13.8344 16.7289 13.5895 16.432 13.4707 16.0832C13.2332 15.3707 13.5523 14.5988 14.2277 14.2648L14.6656 14.0422C15.1555 13.7973 15.727 13.7527 16.2465 13.9309L17.9684 14.5023C18.577 14.7027 19.2449 14.4727 19.5938 13.9457C19.9426 13.4262 19.9055 12.7359 19.5047 12.2535L18.4953 11.0438C17.7531 10.1531 17.7605 8.8543 18.5176 7.97852L19.6828 6.62031C20.3359 5.85586 20.4398 4.76484 19.9426 3.89648L19.7645 3.58477C19.5047 3.56992 19.2523 3.5625 18.9926 3.5625C12.1051 3.5625 6.26406 8.08242 4.28242 14.3242V14.3242ZM34.4375 19C34.4375 16.2688 33.725 13.7008 32.4781 11.4668L30.5781 12.2313C29.4129 12.6988 28.8117 13.9977 29.2051 15.1852L30.4594 18.948C30.7191 19.7199 31.35 20.3063 32.1367 20.4992L34.2965 21.041C34.3855 20.373 34.4301 19.6902 34.4301 19H34.4375ZM38 19C38 29.4945 29.4945 38 19 38C8.50547 38 0 29.4945 0 19C0 8.50547 8.50547 0 19 0C29.4945 0 38 8.50547 38 19Z" fill="rgba(29, 161, 242, 1)"/>
</g>
<defs>
<clipPath id="clip0_101_2">
<rect width="38" height="38" fill="white"/>
</clipPath>
</defs>
</svg>
