<svg width="38" height="38" viewBox="0 0 38 38" fill="none" xmlns="http://www.w3.org/2000/svg">
<g clip-path="url(#clip0_83_10)">
<path fill-rule="evenodd" clip-rule="evenodd" d="M20.9443 4.256C20.3884 3.82358 19.7043 3.58881 19 3.58881C18.2957 3.58881 17.6116 3.82358 17.0557 4.256L3.781 14.5793C2.59033 15.5088 3.24583 17.4167 4.75475 17.4167H6.48375L7.78208 30.3984C7.86022 31.1798 8.2259 31.9043 8.80814 32.4312C9.39038 32.9582 10.1476 33.25 10.9329 33.25H27.0671C27.8524 33.25 28.6096 32.9582 29.1919 32.4312C29.7741 31.9043 30.1398 31.1798 30.2179 30.3984L31.5163 17.4167H33.2453C34.7526 17.4167 35.4113 15.5088 34.219 14.5809L20.9443 4.25759V4.256ZM19 25.3333C20.2598 25.3333 21.468 24.8329 22.3588 23.9421C23.2496 23.0513 23.75 21.8431 23.75 20.5833C23.75 19.3236 23.2496 18.1154 22.3588 17.2246C21.468 16.3338 20.2598 15.8333 19 15.8333C17.7402 15.8333 16.532 16.3338 15.6412 17.2246C14.7504 18.1154 14.25 19.3236 14.25 20.5833C14.25 21.8431 14.7504 23.0513 15.6412 23.9421C16.532 24.8329 17.7402 25.3333 19 25.3333V25.3333Z" fill="black"/>
</g>
<defs>
<clipPath id="clip0_83_10">
<rect width="38" height="38" fill="white"/>
</clipPath>
</defs>
</svg>
