<svg width="38" height="38" viewBox="0 0 38 38" fill="none" xmlns="http://www.w3.org/2000/svg">
<path d="M6.83334 20.5833V20.0833H6.33334H4.75011C4.75007 20.0833 4.75004 20.0833 4.75 20.0833C4.53581 20.0833 4.32644 20.0197 4.14836 19.9007C3.97025 19.7816 3.83144 19.6125 3.74946 19.4145C3.66748 19.2166 3.64603 18.9988 3.68781 18.7887C3.72959 18.5786 3.83271 18.3856 3.98414 18.2341C3.98416 18.2341 3.98418 18.2341 3.98419 18.2341L18.2341 3.98414L18.2344 3.98384C18.3349 3.88319 18.4542 3.80335 18.5856 3.74887C18.717 3.69439 18.8578 3.66635 19 3.66635C19.1422 3.66635 19.283 3.69439 19.4144 3.74887C19.5458 3.80335 19.6651 3.88319 19.7656 3.98384L19.7659 3.98414L34.0158 18.2341C34.0158 18.2341 34.0159 18.2341 34.0159 18.2341C34.1673 18.3856 34.2704 18.5786 34.3122 18.7887C34.354 18.9988 34.3325 19.2166 34.2505 19.4145C34.1686 19.6125 34.0298 19.7816 33.8516 19.9007C33.6736 20.0197 33.4642 20.0833 33.25 20.0833C33.25 20.0833 33.2499 20.0833 33.2499 20.0833H31.6667H31.1667V20.5833V31.6667C31.1667 33.1369 29.9703 34.3333 28.5 34.3333H9.5C8.02973 34.3333 6.83334 33.1369 6.83334 31.6667V20.5833ZM29 16.4888V16.2817L28.8536 16.1353L19.3536 6.63528L19 6.98884L18.6464 6.63531L9.14642 16.1369L9 16.2833V16.4904V31.6667V32.1667H9.5H28.5016H29.0017L29.0016 31.6666L29 23.75V23.7499V16.4888Z" fill="currentColor" stroke="currentColor"/>
<path d="M24.8333 20.5833C24.8333 23.8 22.2167 26.4167 19 26.4167C15.7833 26.4167 13.1667 23.8 13.1667 20.5833C13.1667 17.3666 15.7833 14.75 19 14.75C22.2167 14.75 24.8333 17.3666 24.8333 20.5833ZM22.6667 20.5833C22.6667 18.5608 21.0226 16.9167 19 16.9167C16.9774 16.9167 15.3333 18.5608 15.3333 20.5833C15.3333 22.6059 16.9774 24.25 19 24.25C21.0226 24.25 22.6667 22.6059 22.6667 20.5833Z" fill="currentColor" stroke="currentColor"/>
</svg>
