<svg width="38" height="38" viewBox="0 0 38 38" fill="none" xmlns="http://www.w3.org/2000/svg">
<path d="M22.1667 3.16669H9.50001C8.66016 3.16669 7.8547 3.50032 7.26084 4.09418C6.66697 4.68805 6.33334 5.4935 6.33334 6.33335V31.6667C6.33334 32.5065 6.66697 33.312 7.26084 33.9059C7.8547 34.4997 8.66016 34.8334 9.50001 34.8334H28.5C29.3399 34.8334 30.1453 34.4997 30.7392 33.9059C31.333 33.312 31.6667 32.5065 31.6667 31.6667V12.6667L22.1667 3.16669Z" stroke="#3A3838" stroke-width="3" stroke-linecap="round" stroke-linejoin="round"/>
<path d="M22.1667 3.16669V12.6667H31.6667" stroke="#3A3838" stroke-width="3" stroke-linecap="round" stroke-linejoin="round"/>
<path d="M25.3334 20.5833H12.6667" stroke="#3A3838" stroke-width="3" stroke-linecap="round" stroke-linejoin="round"/>
<path d="M25.3334 26.9167H12.6667" stroke="#3A3838" stroke-width="3" stroke-linecap="round" stroke-linejoin="round"/>
<path d="M15.8334 14.25H14.25H12.6667" stroke="#3A3838" stroke-width="3" stroke-linecap="round" stroke-linejoin="round"/>
</svg>
