<svg width="38" height="38" viewBox="0 0 38 38" fill="none" xmlns="http://www.w3.org/2000/svg">
<path d="M33.25 15.8333C33.25 26.9167 19 36.4167 19 36.4167C19 36.4167 4.75 26.9167 4.75 15.8333C4.75 12.054 6.25133 8.42945 8.92373 5.75706C11.5961 3.08466 15.2207 1.58333 19 1.58333C22.7793 1.58333 26.4039 3.08466 29.0763 5.75706C31.7487 8.42945 33.25 12.054 33.25 15.8333Z" stroke="rgba(29, 161, 242, 1)" stroke-width="2" stroke-linecap="round" stroke-linejoin="round"/>
<path d="M19 20.5833C21.6234 20.5833 23.75 18.4567 23.75 15.8333C23.75 13.21 21.6234 11.0833 19 11.0833C16.3766 11.0833 14.25 13.21 14.25 15.8333C14.25 18.4567 16.3766 20.5833 19 20.5833Z" stroke="rgba(29, 161, 242, 1)" stroke-width="2" stroke-linecap="round" stroke-linejoin="round"/>
</svg>
