<svg width="42" height="42" viewBox="0 0 42 42" fill="none" xmlns="http://www.w3.org/2000/svg">
<path d="M41.3752 8.63975C39.914 9.28725 38.3442 9.72475 36.694 9.9225C38.3968 8.90363 39.6707 7.30006 40.278 5.411C38.6782 6.36123 36.9274 7.03009 35.1015 7.3885C33.8737 6.07751 32.2474 5.20857 30.4751 4.91658C28.7028 4.62459 26.8837 4.92588 25.3002 5.77369C23.7167 6.6215 22.4574 7.96838 21.7178 9.60523C20.9782 11.2421 20.7997 13.0773 21.21 14.826C17.9685 14.6632 14.7973 13.8207 11.9025 12.3531C9.00763 10.8855 6.45372 8.82553 4.4065 6.307C3.7065 7.5145 3.304 8.9145 3.304 10.4055C3.30322 11.7477 3.63375 13.0694 4.26629 14.2533C4.89882 15.4371 5.81378 16.4466 6.93 17.192C5.63548 17.1508 4.36953 16.801 3.2375 16.1717V16.2767C3.23737 18.1593 3.88856 19.9839 5.08057 21.441C6.27258 22.8981 7.932 23.8979 9.77725 24.2707C8.57637 24.5957 7.31734 24.6436 6.09525 24.4107C6.61587 26.0306 7.62999 27.447 8.99564 28.4619C10.3613 29.4767 12.0101 30.0391 13.7112 30.0702C10.8235 32.3372 7.25705 33.5669 3.58575 33.5615C2.93541 33.5617 2.28563 33.5237 1.63975 33.4477C5.36633 35.8438 9.70434 37.1154 14.1347 37.1105C29.1322 37.1105 37.331 24.689 37.331 13.916C37.331 13.566 37.3223 13.2125 37.3065 12.8625C38.9013 11.7092 40.2778 10.2811 41.3717 8.645L41.3752 8.63975Z" fill="#1D9BF0"/>
</svg>
