<svg width="38" height="38" viewBox="0 0 38 38" fill="none" xmlns="http://www.w3.org/2000/svg">
<g clip-path="url(#clip0_22_60)">
<path d="M33.7778 4.22223H4.22223C3.66232 4.22223 3.12535 4.44465 2.72944 4.84056C2.33353 5.23647 2.11111 5.77344 2.11111 6.33334V31.6667C2.11111 32.2266 2.33353 32.7635 2.72944 33.1595C3.12535 33.5554 3.66232 33.7778 4.22223 33.7778H33.7778C34.3377 33.7778 34.8747 33.5554 35.2706 33.1595C35.6665 32.7635 35.8889 32.2266 35.8889 31.6667V6.33334C35.8889 5.77344 35.6665 5.23647 35.2706 4.84056C34.8747 4.44465 34.3377 4.22223 33.7778 4.22223ZM4.22223 31.6667V6.33334H33.7778V31.6667H4.22223Z" fill="rgba(29, 161, 242, 1)"/>
<path d="M9.41555 14.7778C10.0419 14.7778 10.6541 14.5921 11.1749 14.2441C11.6956 13.8961 12.1015 13.4016 12.3412 12.8229C12.5808 12.2443 12.6436 11.6076 12.5214 10.9933C12.3992 10.3791 12.0976 9.81481 11.6547 9.37194C11.2119 8.92907 10.6476 8.62748 10.0333 8.50529C9.41907 8.3831 8.78235 8.44581 8.20372 8.68549C7.62509 8.92517 7.13052 9.33105 6.78257 9.85181C6.43461 10.3726 6.24889 10.9848 6.24889 11.6111C6.24889 12.451 6.58252 13.2564 7.17638 13.8503C7.77025 14.4441 8.5757 14.7778 9.41555 14.7778ZM9.41555 9.92222C9.75003 9.92013 10.0776 10.0174 10.3567 10.2017C10.6358 10.386 10.8539 10.649 10.9834 10.9575C11.1128 11.2659 11.1478 11.6058 11.0838 11.9341C11.0199 12.2624 10.8598 12.5643 10.6241 12.8016C10.3883 13.0388 10.0874 13.2007 9.7595 13.2667C9.4316 13.3328 9.09148 13.2999 8.78226 13.1724C8.47304 13.0449 8.20865 12.8285 8.0226 12.5505C7.83655 12.2725 7.73723 11.9456 7.73722 11.6111C7.73999 11.1668 7.9177 10.7416 8.23185 10.4274C8.546 10.1133 8.97129 9.93555 9.41555 9.93278V9.92222Z" fill="rgba(29, 161, 242, 1)"/>
<path d="M24.0456 16.2239L18.3456 21.9239L14.1233 17.7017C13.9256 17.5051 13.658 17.3947 13.3792 17.3947C13.1003 17.3947 12.8328 17.5051 12.635 17.7017L6.24889 24.1722V27.1594L13.4161 19.9922L16.8889 23.4122L12.9306 27.3706H15.8333L24.7528 18.4511L31.6667 25.3333V22.3567L25.5339 16.2239C25.3361 16.0273 25.0686 15.9169 24.7897 15.9169C24.5109 15.9169 24.2433 16.0273 24.0456 16.2239Z" fill="rgba(29, 161, 242, 1)"/>
</g>
<defs>
<clipPath id="clip0_22_60">
<rect width="38" height="38" fill="white"/>
</clipPath>
</defs>
</svg>
