<svg width="18" height="18" viewBox="0 0 32 32" fill="none" xmlns="http://www.w3.org/2000/svg">
<path d="M12.6667 19C12.6667 19.8398 12.333 20.6453 11.7392 21.2392C11.1453 21.833 10.3399 22.1667 9.50001 22.1667C8.66016 22.1667 7.8547 21.833 7.26084 21.2392C6.66697 20.6453 6.33334 19.8398 6.33334 19C6.33334 18.1601 6.66697 17.3547 7.26084 16.7608C7.8547 16.167 8.66016 15.8333 9.50001 15.8333C10.3399 15.8333 11.1453 16.167 11.7392 16.7608C12.333 17.3547 12.6667 18.1601 12.6667 19ZM22.1667 19C22.1667 19.8398 21.833 20.6453 21.2392 21.2392C20.6453 21.833 19.8399 22.1667 19 22.1667C18.1602 22.1667 17.3547 21.833 16.7608 21.2392C16.167 20.6453 15.8333 19.8398 15.8333 19C15.8333 18.1601 16.167 17.3547 16.7608 16.7608C17.3547 16.167 18.1602 15.8333 19 15.8333C19.8399 15.8333 20.6453 16.167 21.2392 16.7608C21.833 17.3547 22.1667 18.1601 22.1667 19ZM28.5 22.1667C29.3399 22.1667 30.1453 21.833 30.7392 21.2392C31.333 20.6453 31.6667 19.8398 31.6667 19C31.6667 18.1601 31.333 17.3547 30.7392 16.7608C30.1453 16.167 29.3399 15.8333 28.5 15.8333C27.6602 15.8333 26.8547 16.167 26.2608 16.7608C25.667 17.3547 25.3333 18.1601 25.3333 19C25.3333 19.8398 25.667 20.6453 26.2608 21.2392C26.8547 21.833 27.6602 22.1667 28.5 22.1667Z" fill="black"/>
</svg>
