<svg width="38" height="38" viewBox="0 0 38 38" fill="none" xmlns="http://www.w3.org/2000/svg">
<path d="M11.0834 22.1666C11.9232 22.1666 12.7287 21.833 13.3225 21.2392C13.9164 20.6453 14.25 19.8398 14.25 19C14.25 18.1601 13.9164 17.3547 13.3225 16.7608C12.7287 16.1669 11.9232 15.8333 11.0834 15.8333C10.2435 15.8333 9.43805 16.1669 8.84418 16.7608C8.25032 17.3547 7.91669 18.1601 7.91669 19C7.91669 19.8398 8.25032 20.6453 8.84418 21.2392C9.43805 21.833 10.2435 22.1666 11.0834 22.1666ZM22.1667 19C22.1667 19.8398 21.8331 20.6453 21.2392 21.2392C20.6453 21.833 19.8399 22.1666 19 22.1666C18.1602 22.1666 17.3547 21.833 16.7608 21.2392C16.167 20.6453 15.8334 19.8398 15.8334 19C15.8334 18.1601 16.167 17.3547 16.7608 16.7608C17.3547 16.1669 18.1602 15.8333 19 15.8333C19.8399 15.8333 20.6453 16.1669 21.2392 16.7608C21.8331 17.3547 22.1667 18.1601 22.1667 19ZM26.9167 22.1666C27.7565 22.1666 28.562 21.833 29.1559 21.2392C29.7497 20.6453 30.0834 19.8398 30.0834 19C30.0834 18.1601 29.7497 17.3547 29.1559 16.7608C28.562 16.1669 27.7565 15.8333 26.9167 15.8333C26.0768 15.8333 25.2714 16.1669 24.6775 16.7608C24.0837 17.3547 23.75 18.1601 23.75 19C23.75 19.8398 24.0837 20.6453 24.6775 21.2392C25.2714 21.833 26.0768 22.1666 26.9167 22.1666Z" fill="#3A3838"/>
<path fill-rule="evenodd" clip-rule="evenodd" d="M38 19C38 29.4928 29.4928 38 19 38C8.50725 38 0 29.4928 0 19C0 8.50725 8.50725 0 19 0C29.4928 0 38 8.50725 38 19ZM34.8333 19C34.8333 27.7448 27.7448 34.8333 19 34.8333C10.2553 34.8333 3.16667 27.7448 3.16667 19C3.16667 10.2553 10.2553 3.16667 19 3.16667C27.7448 3.16667 34.8333 10.2553 34.8333 19Z" fill="#3A3838"/>
</svg>
