<svg width="38" height="38" viewBox="0 0 38 38" fill="none" xmlns="http://www.w3.org/2000/svg">
<path d="M32.49 24.0825L29.64 21.2167V14.155C29.6779 11.5327 28.7658 8.98528 27.072 6.98304C25.3783 4.9808 23.0173 3.65899 20.425 3.26167C18.9205 3.06355 17.3911 3.18855 15.9388 3.62833C14.4865 4.06812 13.1446 4.81258 12.0028 5.81204C10.861 6.81151 9.94546 8.04299 9.31729 9.42431C8.68913 10.8056 8.36277 12.3051 8.36 13.8225V21.2167L5.51 24.0825C5.15202 24.4465 4.90926 24.9079 4.81207 25.409C4.71488 25.9102 4.76757 26.4289 4.96355 26.9003C5.15954 27.3717 5.49013 27.7748 5.91399 28.0593C6.33785 28.3439 6.83617 28.4971 7.34667 28.5H12.6667V29.0383C12.7406 30.6457 13.4488 32.1583 14.6359 33.2445C15.823 34.3307 17.3924 34.9021 19 34.8333C20.6076 34.9021 22.177 34.3307 23.3641 33.2445C24.5512 32.1583 25.2594 30.6457 25.3333 29.0383V28.5H30.6533C31.1638 28.4971 31.6621 28.3439 32.086 28.0593C32.5099 27.7748 32.8405 27.3717 33.0364 26.9003C33.2324 26.4289 33.2851 25.9102 33.1879 25.409C33.0907 24.9079 32.848 24.4465 32.49 24.0825ZM22.1667 29.0383C22.0789 29.7999 21.7006 30.4983 21.1107 30.9879C20.5208 31.4775 19.7647 31.7207 19 31.6667C18.2353 31.7207 17.4792 31.4775 16.8893 30.9879C16.2994 30.4983 15.9211 29.7999 15.8333 29.0383V28.5H22.1667V29.0383ZM8.72417 25.3333L10.5925 23.465C10.8888 23.1704 11.124 22.8201 11.2843 22.4342C11.4446 22.0483 11.527 21.6345 11.5267 21.2167V13.8225C11.5275 12.7544 11.7569 11.6988 12.1993 10.7266C12.6417 9.75444 13.2869 8.88813 14.0917 8.18584C14.8856 7.4665 15.8263 6.92828 16.8488 6.60841C17.8713 6.28855 18.951 6.1947 20.0133 6.33334C21.8444 6.63065 23.5065 7.57944 24.6935 9.00502C25.8805 10.4306 26.5126 12.237 26.4733 14.0917V21.2167C26.4709 21.6334 26.5508 22.0466 26.7084 22.4324C26.866 22.8182 27.0982 23.1691 27.3917 23.465L29.2758 25.3333H8.72417Z" fill="currentColor"/>
</svg>
