<svg width="38" height="38" viewBox="0 0 38 38" fill="none" xmlns="http://www.w3.org/2000/svg">
<path d="M19 4.5238C20.4398 4.5238 21.8205 5.09574 22.8386 6.1138C23.8566 7.13185 24.4286 8.51263 24.4286 9.95238V13.5714C24.4286 15.0112 23.8566 16.3919 22.8386 17.41C21.8205 18.4281 20.4398 19 19 19C17.5603 19 16.1795 18.4281 15.1614 17.41C14.1434 16.3919 13.5714 15.0112 13.5714 13.5714V9.95238C13.5714 8.51263 14.1434 7.13185 15.1614 6.1138C16.1795 5.09574 17.5603 4.5238 19 4.5238V4.5238ZM31.6667 29.8571V28.5398C31.6667 22.7729 24.9968 19 19 19C13.0032 19 6.33334 22.7729 6.33334 28.5398V29.8571C6.33334 30.3371 6.52399 30.7973 6.86334 31.1367C7.20269 31.476 7.66295 31.6667 8.14287 31.6667H29.8572C30.3371 31.6667 30.7973 31.476 31.1367 31.1367C31.476 30.7973 31.6667 30.3371 31.6667 29.8571Z" stroke="#3A3838" stroke-width="3" stroke-linecap="round" stroke-linejoin="round"/>
</svg>
