<svg width="24" height="24" viewBox="0 0 38 38" fill="none" xmlns="http://www.w3.org/2000/svg">
<path d="M32.7908 30.5425L27.4075 25.175C29.1444 22.9622 30.0868 20.2297 30.0833 17.4167C30.0833 14.9114 29.3405 12.4625 27.9486 10.3794C26.5568 8.29643 24.5785 6.67291 22.264 5.7142C19.9495 4.75549 17.4026 4.50465 14.9455 4.99339C12.4884 5.48214 10.2315 6.68852 8.45999 8.45999C6.68852 10.2315 5.48214 12.4884 4.99339 14.9455C4.50465 17.4026 4.75549 19.9495 5.7142 22.264C6.67291 24.5785 8.29643 26.5568 10.3794 27.9486C12.4625 29.3405 14.9114 30.0833 17.4167 30.0833C20.2297 30.0868 22.9622 29.1444 25.175 27.4075L30.5425 32.7908C30.6897 32.9392 30.8648 33.057 31.0578 33.1374C31.2507 33.2178 31.4577 33.2592 31.6667 33.2592C31.8757 33.2592 32.0826 33.2178 32.2756 33.1374C32.4685 33.057 32.6436 32.9392 32.7908 32.7908C32.9392 32.6436 33.057 32.4685 33.1374 32.2756C33.2178 32.0826 33.2592 31.8757 33.2592 31.6667C33.2592 31.4577 33.2178 31.2507 33.1374 31.0578C33.057 30.8648 32.9392 30.6897 32.7908 30.5425ZM7.91667 17.4167C7.91667 15.5377 8.47384 13.701 9.51771 12.1388C10.5616 10.5765 12.0453 9.35885 13.7812 8.63982C15.5171 7.92078 17.4272 7.73265 19.27 8.09921C21.1129 8.46577 22.8056 9.37056 24.1342 10.6992C25.4628 12.0278 26.3676 13.7205 26.7341 15.5633C27.1007 17.4061 26.9126 19.3163 26.1935 21.0522C25.4745 22.7881 24.2569 24.2718 22.6946 25.3156C21.1323 26.3595 19.2956 26.9167 17.4167 26.9167C14.8971 26.9167 12.4808 25.9158 10.6992 24.1342C8.91756 22.3526 7.91667 19.9362 7.91667 17.4167Z" fill="#14171a"/>
</svg>
