<svg width="38" height="38" viewBox="0 0 38 38" fill="none" xmlns="http://www.w3.org/2000/svg">
<g clip-path="url(#clip0_22_92)">
<path d="M19.6742 17.365L19.674 17.3651L15.0738 18.8969C15.0351 18.9098 15.0226 18.9253 15.0167 18.9341C15.0076 18.9475 14.9988 18.9703 14.9988 19C14.9988 19.0297 15.0076 19.0524 15.0167 19.0658C15.0226 19.0747 15.0351 19.0902 15.0738 19.1031L19.674 20.6349L19.6741 20.635C20.7956 21.0087 21.8147 21.6385 22.6506 22.4744C23.4865 23.3103 24.1163 24.3294 24.49 25.4509L24.4901 25.451L26.022 30.0514L26.023 30.0545C26.03 30.076 26.0437 30.0947 26.062 30.108L25.6221 30.7154L26.062 30.108C26.0803 30.1212 26.1024 30.1284 26.125 30.1284C26.1476 30.1284 26.1697 30.1212 26.188 30.108C26.2063 30.0947 26.22 30.076 26.227 30.0545L26.2281 30.0514L27.7599 25.451L27.76 25.4509C28.1338 24.3294 28.7635 23.3103 29.5994 22.4744C30.4353 21.6385 31.4544 21.0087 32.5759 20.635L32.5761 20.6349L37.1764 19.103L37.1795 19.102C37.201 19.095 37.2197 19.0813 37.233 19.063C37.2463 19.0447 37.2534 19.0226 37.2534 19C37.2534 18.9774 37.2463 18.9553 37.233 18.937C37.2197 18.9187 37.201 18.905 37.1795 18.898L37.1763 18.8969L32.5786 17.3651C32.5785 17.3651 32.5784 17.3651 32.5783 17.365C31.4564 16.9916 30.4369 16.362 29.6006 15.5262C28.7642 14.6902 28.1341 13.671 27.76 12.5492L27.7599 12.5489L26.2281 7.94879L19.6742 17.365ZM19.6742 17.365C20.796 16.991 21.8153 16.3608 22.6512 15.5244M19.6742 17.365L22.6512 15.5244M4.97648 9.43511L4.75001 8.7557L4.52361 9.43492L4.97648 9.43511ZM4.97648 9.43511C4.97653 9.43526 4.97658 9.4354 4.97663 9.43554C5.14816 9.95096 5.43747 10.4193 5.82158 10.8034C6.2057 11.1875 6.67405 11.4768 7.18947 11.6484C7.18961 11.6484 7.18976 11.6485 7.1899 11.6485L7.86931 11.875M4.97648 9.43511L7.86931 11.875M7.86931 11.875L7.1899 12.1015M7.86931 11.875L7.1899 12.1015M7.1899 12.1015C6.67431 12.273 6.2058 12.5623 5.82158 12.9466C5.43753 13.3306 5.14827 13.7989 4.97672 14.3142L7.1899 12.1015ZM1.63341 11.8741L2.30994 11.6486L1.63341 11.8741ZM1.63341 11.8741L2.30994 12.099C2.30997 12.099 2.30999 12.099 2.31001 12.099C3.35597 12.4467 4.17557 13.2662 4.5234 14.3121C4.52341 14.3121 4.52342 14.3121 4.52343 14.3121C4.52349 14.3123 4.52355 14.3125 4.52361 14.3127L4.75026 14.9927L4.97648 14.3149L1.63341 11.8741ZM22.6512 15.5244C23.4871 14.6881 24.1166 13.6686 24.4901 12.5467M22.6512 15.5244L24.4901 12.5467M24.4901 12.5467C24.4901 12.5466 24.4901 12.5465 24.4901 12.5465M24.4901 12.5467L24.4901 12.5465M24.4901 12.5465L26.0219 7.94879L24.4901 12.5465ZM26.0592 7.89164C26.0504 7.8976 26.0349 7.91001 26.0219 7.94868L26.0592 7.89164ZM26.0592 7.89164C26.0726 7.88255 26.0953 7.87381 26.125 7.87381M26.0592 7.89164L26.125 7.87381M26.125 7.87381C26.1547 7.87381 26.1775 7.88255 26.1909 7.89164M26.125 7.87381L26.1909 7.89164M26.1909 7.89164C26.1997 7.8976 26.2152 7.90998 26.2281 7.94857L26.1909 7.89164ZM5.72325 27.8032L5.72385 27.803C7.17772 27.3174 8.31746 26.1777 8.80302 24.7238L8.80321 24.7232L9.50002 22.631L10.1968 24.7232L10.1968 24.7233C10.4358 25.4406 10.8385 26.0923 11.3731 26.6269C11.9077 27.1615 12.5594 27.5642 13.2767 27.8032L13.2768 27.8032L15.369 28.5L13.2768 29.1968L13.2767 29.1968C12.5594 29.4358 11.9077 29.8385 11.3731 30.3731C10.8385 30.9077 10.4358 31.5594 10.1968 32.2767L10.1968 32.2768L9.50002 34.369L8.80321 32.2768L8.80319 32.2767C8.56422 31.5594 8.16149 30.9077 7.62691 30.3731C7.09232 29.8385 6.44058 29.4358 5.72333 29.1968L5.72325 29.1968L3.63105 28.5L5.72325 27.8032ZM2.31056 11.6484C3.35626 11.3006 4.17563 10.4812 4.5234 9.43554L2.31056 11.6484Z" stroke="black" stroke-width="1.5"/>
</g>
<defs>
<clipPath id="clip0_22_92">
<rect width="38" height="38" fill="white" transform="translate(0 38) rotate(-90)"/>
</clipPath>
</defs>
</svg>
